# xmcd
#
# Track frame offsets: 
#        150
#        16907
#        32735
#        49762
#        65375
#        92867
#        111240
#        133915
#        151730
#        184677
#        199367
#        217770
#
# Disc length: 3148 seconds
#
# Revision: 1
# Processed by: cddbd v1.5.2PL0 Copyright (c) Steve Scherf et al.
# Submitted via: ExactAudioCopy v0.99pb4
#
DISCID=a20c4a0c
DTITLE=Too Mutz Blues Band - Crossroads
DYEAR=1998
DGENRE=Blues
TTITLE0=Crossroads
TTITLE1=I'm a good man
TTITLE2=Little Queenie
TTITLE3=Hide-away
TTITLE4=Love in vain
TTITLE5=She's a superstar
TTITLE6=Redhous
TTITLE7=You don't exist anymore
TTITLE8=Feels like rain
TTITLE9=Wait on time
TTITLE10=Sunshine of your love
TTITLE11=Thank you
EXTD=
EXTT0=
EXTT1=
EXTT2=
EXTT3=
EXTT4=
EXTT5=
EXTT6=
EXTT7=
EXTT8=
EXTT9=
EXTT10=
EXTT11=
PLAYORDER=
